<svg xmlns:xlink="http://www.w3.org/1999/xlink" xmlns="http://www.w3.org/2000/svg" aria-hidden="true" viewBox="0 0 28 28" width="28"  height="28" ><defs><symbol id="tcl-badge-powerwall-keep-running" data-name="Powerwall Keep Running" viewBox="0 0 22.5 22.48" xmlns="http://www.w3.org/2000/svg">
		<path fill="white" d="M15.41 20.57a.3.3 0 0 0 .08.04c.11.06.23.12.34.18.04.02.07.04.11.06.21.14.33.34.38.59a.88.88 0 0 1-.66 1.01c-.2.05-.4.03-.59-.06-.03-.01-.05-.03-.08-.04-.74-.39-1.48-.77-2.22-1.16-.03-.02-.06-.03-.09-.05a.866.866 0 0 1-.41-.59.776.776 0 0 1 .07-.54c.01-.03.03-.06.04-.09.38-.74.77-1.47 1.15-2.21.01-.02.02-.05.04-.07.14-.25.35-.39.63-.44a.896.896 0 0 1 .95 1.28c-.04.07-.07.14-.11.21l-.03.06c0 .01 0 .01.01.02h.01l.06-.03c.35-.18.69-.39 1.02-.62a8.242 8.242 0 0 0 3.03-4.04c.11-.31.2-.62.27-.93.03-.12.07-.23.15-.33.15-.2.35-.33.6-.36.48-.06.88.25.98.66.04.14.04.28.01.42-.15.67-.37 1.32-.65 1.95-.6 1.34-1.46 2.49-2.56 3.46-.72.63-1.51 1.15-2.38 1.55-.03.01-.06.03-.1.04-.04.01-.04.02-.05.03zM1.92 15.39c-.01 0-.02.01-.02.02-.02.03-.04.07-.05.1-.06.11-.11.22-.17.32-.09.17-.22.3-.39.38a.895.895 0 0 1-1.27-.63.781.781 0 0 1 .06-.52c.01-.03.03-.06.05-.09.39-.74.77-1.49 1.16-2.23a.874.874 0 0 1 .64-.5c.19-.04.37-.01.54.07.03.02.07.03.1.05.72.38 1.45.75 2.17 1.13.03.02.07.04.1.05.23.14.37.34.42.6.09.47-.2.91-.66 1.02-.21.05-.41.03-.6-.06-.09-.04-.17-.09-.26-.13-.01-.01-.02-.01-.04-.01h-.01v.01c.01.02.02.05.03.07.28.54.61 1.04 1 1.51a8.382 8.382 0 0 0 4.06 2.67c.18.05.36.1.55.14a.88.88 0 1 1-.42 1.71c-1.31-.3-2.53-.84-3.63-1.62a9.93 9.93 0 0 1-3.32-4c-.01-.01-.02-.03-.04-.06zM18.77 7.5c0-.01.01-.01.01-.02a.3.3 0 0 0-.04-.08c-.25-.48-.54-.94-.88-1.36a8.23 8.23 0 0 0-3.2-2.46c-.47-.2-.95-.36-1.45-.48a.971.971 0 0 1-.36-.16.837.837 0 0 1-.33-.53c-.1-.49.22-.93.65-1.04.14-.03.28-.03.42 0 1.5.35 2.86 1 4.06 1.96 1.25 1 2.2 2.23 2.87 3.67.01.02.02.05.03.07 0 .01.02.01.02 0 .02-.03.03-.05.04-.07.07-.13.14-.27.21-.4.05-.09.1-.17.18-.24.14-.14.31-.22.51-.24.42-.05.83.2.95.62.06.21.05.42-.04.62-.01.03-.03.06-.04.09-.39.76-.79 1.51-1.18 2.27-.05.1-.11.19-.19.26-.13.12-.27.2-.44.23-.21.04-.41.01-.6-.08-.18-.1-.37-.19-.55-.29-.58-.3-1.15-.6-1.73-.9a.9.9 0 0 1-.51-.68.88.88 0 0 1 .69-.99c.2-.04.39-.02.58.07.09.04.17.09.26.13l.06.03zM8.16 5.27c-.38 0-.78-.26-.87-.71-.04-.2-.01-.39.08-.58l.12-.24c.01-.01.01-.03.02-.04v-.01H7.5c-.02.01-.04.01-.06.02-.27.14-.54.29-.8.46A8.35 8.35 0 0 0 3.45 8.2c-.14.36-.25.72-.33 1.09-.03.14-.08.27-.17.37-.15.19-.34.3-.57.34a.905.905 0 0 1-.99-.64.978.978 0 0 1-.01-.45c.3-1.32.84-2.54 1.63-3.65 1.03-1.45 2.36-2.55 3.97-3.31.03-.01.06-.03.09-.05.01 0 .01-.02 0-.02-.01-.01-.04-.02-.06-.04-.11-.05-.22-.11-.33-.17A.878.878 0 0 1 6.86.04c.22-.07.44-.05.65.06.64.33 1.28.67 1.91 1 .11.06.22.11.32.17.04.02.07.03.1.05.22.14.35.34.4.59.03.18.01.35-.06.52-.01.03-.03.06-.05.09-.38.74-.77 1.48-1.15 2.22-.02.03-.04.07-.06.1-.14.23-.35.37-.62.41-.04.01-.09.01-.14.02zm2.87 8.64c0-.33.01-.93.01-1.52v-.1c0-.09-.06-.16-.15-.18-.02-.01-.05-.01-.08-.01H8.4c-.05-.01-.1-.03-.13-.08-.04-.05-.05-.1-.02-.16.01-.03.03-.06.04-.09.29-.55.59-1.1.88-1.65.66-1.24 1.32-2.47 1.98-3.71.02-.03.03-.06.05-.08a.216.216 0 0 1 .31-.06c.04.03.07.07.07.13v3.47c0 .11.1.17.17.18h.08c.3-.01.59-.01.89-.02.12 0 .25 0 .37-.01.28-.01.56-.01.83-.02h.13c.05 0 .1.02.13.06.04.05.06.11.04.17-.01.03-.02.06-.04.09-.2.42-.4.84-.6 1.25-.71 1.48-1.43 2.97-2.14 4.45-.02.03-.03.06-.05.09-.06.11-.21.14-.31.06a.185.185 0 0 1-.07-.12v-.09c.02-.59.02-1.19.02-2.05z"></path>
	</symbol></defs>
      <use href="#tcl-badge-powerwall-keep-running"></use>
    </svg>