<svg xmlns:xlink="http://www.w3.org/1999/xlink" xmlns="http://www.w3.org/2000/svg" aria-hidden="true" viewBox="0 0 28 28" width="28"  height="28" ><defs><symbol id="tcl-badge-powerwall-store-energy" data-name="Powerwall Store Energy" viewBox="0 0 22 22" xmlns="http://www.w3.org/2000/svg">
		<path fill="white" fill-rule="evenodd" d="m16.1 0 1.5.5c.8.3 1.4 1 1.4 1.9v17.2c0 .9-.6 1.6-1.4 1.9l-1.5.5-11.4-1.7c-.9-.1-1.6-.9-1.7-1.8V3.7c0-.9.7-1.7 1.6-1.9h.2L16.1 0zm0 1.5v19.8l2.2-.6V2.1l-2.2-.6zM9.4 6.1l-2.9 5.5c-.1.1 0 .3.2.3H9c.1 0 .2.1.2.2v3.7c0 .2.3.3.4.1l2.8-5.9c.1-.1 0-.3-.2-.3H10c-.1 0-.2-.1-.2-.2V6.2c0-.2-.3-.3-.4-.1z"></path>
	</symbol></defs>
      <use href="#tcl-badge-powerwall-store-energy"></use>
    </svg>