<svg xmlns:xlink="http://www.w3.org/1999/xlink" fill="none" xmlns="http://www.w3.org/2000/svg" width="21" height="21"><circle cx="10.5" cy="10.5" r="10.5" fill="#fff"/><circle cx="10.5" cy="10.5" r="9" fill="#B74134"/><path fill-rule="evenodd" clip-rule="evenodd" d="M4.822 11.712c-.493.013-.838-.016-1.037-.086-.298-.106-.298-.472-.251-.55.03-.052.037-.157.018-.315l-.048-.311c-.012-.083.004-.146.048-.192.771-.449 1.327-.73 1.666-.844.51-.17 1.395-.297 1.805-.308C7.153 9.03 9.188 7.5 11.48 7.5c2.293 0 3.338.375 4.381.809 1.043.434 1.296.455 1.438.455-.053.178-.034 1.389.2 1.53.018.317-.142.864-.255.979-.114.114-.892.439-1.383.439H4.822z" fill="#fff" stroke="#fff" stroke-width=".828" stroke-linecap="round" stroke-linejoin="round"/><path d="M6.247 13.117a1.322 1.322 0 100-2.644 1.322 1.322 0 000 2.644zm8.346 0a1.322 1.322 0 100-2.644 1.322 1.322 0 000 2.644z" fill="#fff" stroke="#B74134" stroke-width=".825"/><path fill-rule="evenodd" clip-rule="evenodd" d="M8.448 9.078c.514-.362 1.292-.666 2.334-.911.102-.024.45-.06.783-.066.06 0 .454 0 .814.023.614.04 1.356.167 1.776.296.297.09.458.152.563.202.05.023.05.023.116.05-.024.047-.044.14-.85.21-.294.027-.977.054-2.047.08l-3.49.116z" fill="#B74134"/></svg>