<svg xmlns:xlink="http://www.w3.org/1999/xlink" xmlns="http://www.w3.org/2000/svg" aria-hidden="true" viewBox="0 0 42 42" width="42"  height="42" ><defs><symbol id="tcl-badge-injector-camera" data-name="Camera (Alternate)" viewBox="0 0 24 24" xmlns="http://www.w3.org/2000/svg" xml:space="preserve">
		<path fill="#171A20" fill-rule="evenodd" d="M22.5 12c0 5.8-4.7 10.5-10.5 10.5S1.5 17.8 1.5 12 6.2 1.5 12 1.5 22.5 6.2 22.5 12zm1.5 0c0 6.6-5.4 12-12 12S0 18.6 0 12 5.4 0 12 0s12 5.4 12 12zm-12 8c4.4 0 8-3.6 8-8s-3.6-8-8-8-8 3.6-8 8 3.6 8 8 8zm-2-8c1.1 0 2-.9 2-2s-.9-2-2-2-2 .9-2 2 .9 2 2 2zm6 3c0 .6-.4 1-1 1s-1-.4-1-1 .4-1 1-1 1 .4 1 1z"></path>
	</symbol></defs>
      <use href="#tcl-badge-injector-camera"></use>
    </svg>