<svg xmlns:xlink="http://www.w3.org/1999/xlink" xmlns="http://www.w3.org/2000/svg" aria-hidden="true" viewBox="0 0 28 28" width="28"  height="28" ><defs><symbol id="tcl-badge-infinity" data-name="Infinity" viewBox="0 0 47.4 22" xmlns="http://www.w3.org/2000/svg">
		<path fill="#171A20" d="M37.496 0h-1.4c-.2 0-.5.1-.7.1-1.8.2-3.6.8-5.1 1.9-1.3 1-2.4 2.1-3.5 3.3v.1c1 .9 1.9 1.8 2.9 2.7l.2-.2c.8-.7 1.5-1.5 2.3-2.2 1.8-1.6 4-2.1 6.3-1.5 4.7 1.2 6.4 6.3 4.4 10.1-1.5 2.7-4.6 4.1-7.7 3.5-1.1-.2-2-.6-2.9-1.4-.7-.7-1.5-1.4-2.2-2.1-3.6-3.6-7.2-7.1-10.9-10.7-.5-.6-1.1-1.2-1.8-1.6-3.5-2.3-7.3-2.6-11.1-.8-3.2 1.6-5.2 4.2-5.9 7.8-.1.4-.1.9-.2 1.3V12c.2 2.6 1.2 4.8 3 6.7 2 2.1 4.5 3.2 7.5 3.3 2.4.1 4.6-.5 6.6-1.9 1.4-1 2.5-2.2 3.7-3.4-.9-.9-1.9-1.8-2.9-2.8 0 .1-.1.2-.2.2-.7.7-1.5 1.5-2.2 2.1-1.8 1.6-4 2.1-6.4 1.5-3.3-.8-5-3.8-5.2-6.1-.1-2.1.4-3.9 1.9-5.4 1.7-1.8 3.9-2.5 6.4-2 1.3.2 2.4.7 3.3 1.7 2.1 2.1 4.2 4.1 6.3 6.2 2.3 2.3 4.6 4.5 6.9 6.8.7.7 1.4 1.3 2.2 1.8 3 1.6 6.2 1.9 9.4.6 4.7-1.8 7.6-6.8 6.9-11.7-.7-4.5-4-8.1-8.4-9.2-.4-.2-.9-.3-1.5-.4z"></path>
	</symbol></defs>
      <use href="#tcl-badge-infinity"></use>
    </svg>