<svg xmlns:xlink="http://www.w3.org/1999/xlink" xmlns="http://www.w3.org/2000/svg" aria-hidden="true" viewBox="0 0 28 28" width="28"  height="28" ><defs><symbol id="tcl-badge-powerwall-power-your-home" data-name="Powerwall Power Your Home" viewBox="0 0 23.1 23.9" xmlns="http://www.w3.org/2000/svg">
		<path fill="white" d="M10.9 0c.2.2.4.4.6.5l3.3 3 .1.1c-.4.3-.7.4-1 .6l-.9.6-.9.6-.9.6-.9.6-.7.5-.9.5v.1c.3.3.6.5.9.8.7.7 1.4 1.4 2.1 2l.1.1s0 .1-.1.1c-.7.7-1.4 1.4-2 2.1-.7.7-1.4 1.5-2 2.1-.1.1-.1.1-.1.2v8.8H0v-14h.1c.1-.2.3-.4.5-.5 1.6-1.5 3.3-2.9 4.8-4.5C7.2 3.3 8.9 1.6 10.9 0c-.1 0-.1 0 0 0-.1 0-.1 0 0 0zm3.3 23.9v-7.2c.1 0 7.2-4.1 7.3-4.1v11.2c0 .1-7.3.1-7.3.1z"></path>
		<path fill="white" d="M9.8 16.1c.9-1 1.7-1.8 2.7-2.8.9-1 1.7-1.8 2.7-2.8l-.2-.2-.2-.2-.2-.2-.2-.2-.2-.2-.2-.2-.2-.2-.2-.2-.2-.2c.1.2 0 .1 0 0l-.2-.2-.2-.2-.2-.2-.2-.2 10.5-6c-1.8 1.9-3.6 4-5.4 5.9 0 0 0 .1.1.1.4.4.8.8 1.2 1.3.3.3.6.7.9 1l.1.1s-.1 0-.1.1c-.4.2-.8.4-1.2.7-2.9 1.7-5.8 3.3-8.9 5 .1 0 .1 0 0 0z"></path>
	</symbol></defs>
      <use href="#tcl-badge-powerwall-power-your-home"></use>
    </svg>