<svg xmlns:xlink="http://www.w3.org/1999/xlink" width="21" height="21" fill="none" xmlns="http://www.w3.org/2000/svg"><g clip-path="url(#clip0_3575_3055)"><path d="M10.5 21C16.299 21 21 16.299 21 10.5S16.299 0 10.5 0 0 4.701 0 10.5 4.701 21 10.5 21z" fill="#fff"/><path d="M10.5 19.5a9 9 0 100-18 9 9 0 000 18z" fill="#B74134"/><path fill-rule="evenodd" clip-rule="evenodd" d="M10.5 16.75a6.25 6.25 0 100-12.5 6.25 6.25 0 000 12.5zM5.805 8.555c-.095.232.132.451.372.38 2.827-.84 5.837-.84 8.664 0 .24.071.467-.148.372-.38a5.083 5.083 0 00-4.704-3.18 5.083 5.083 0 00-4.704 3.18zm-.3 2.886a.297.297 0 01.299-.347h.732a2.778 2.778 0 012.777 2.777v1.2c0 .203-.189.352-.381.29a5.113 5.113 0 01-3.427-3.92zm9.692-.347c.187 0 .333.163.299.347a5.113 5.113 0 01-3.409 3.913c-.192.064-.383-.085-.383-.288v-1.195a2.778 2.778 0 012.778-2.777h.715z" fill="#fff"/></g><defs><clipPath id="clip0_3575_3055"><path fill="#fff" d="M0 0h21v21H0z"/></clipPath></defs></svg>