<svg xmlns:xlink="http://www.w3.org/1999/xlink" xmlns="http://www.w3.org/2000/svg" aria-hidden="true" viewBox="0 0 28 28" width="28"  height="28" ><defs><symbol id="tcl-badge-model-y-trunk-small" data-name="Model Y Trunk (Small)" viewBox="0 0 28 28" xmlns="http://www.w3.org/2000/svg">
		<path fill="#171A20" fill-rule="evenodd" clip-rule="evenodd" d="M24.564 1.461a1.575 1.575 0 0 0-2.228 0L16.27 7.527l-3.68-1.082a23.8 23.8 0 0 0-6.716-.967H1.4a1.4 1.4 0 1 0 0 2.8h4.474a21 21 0 0 1 5.926.853l6.628 1.95a29.4 29.4 0 0 0 4.65.967l1.654.207-.295.885a5.053 5.053 0 0 0 .59 4.4c.113.17.173.37.173.575v1.363a1.4 1.4 0 0 1-1.4 1.4h-2.838a6.3 6.3 0 1 0-12.523 0H1.4a1.4 1.4 0 1 0 0 2.8h8.06a6.294 6.294 0 0 0 5.24 2.8 6.294 6.294 0 0 0 5.24-2.8h3.86a4.2 4.2 0 0 0 4.2-4.2v-1.363c0-.757-.224-1.498-.644-2.128a2.253 2.253 0 0 1-.263-1.962l.565-1.695a2.1 2.1 0 0 0-1.732-2.748l-2.501-.312a26.6 26.6 0 0 1-4.095-.843l4.12-4.12 1.11 1.11a1.4 1.4 0 0 0 1.98-1.98l-1.976-1.976ZM14.7 23.677a3.5 3.5 0 1 0 0-7 3.5 3.5 0 0 0 0 7Z"></path>
		<path fill="#171A20" d="M9.543 13.106a1.4 1.4 0 0 0-.886-2.657c-2.061.687-3.988 1.329-7.257 1.329a1.4 1.4 0 1 0 0 2.8c3.727 0 6-.758 8.137-1.47l.006-.002Z"></path>
	</symbol></defs>
      <use href="#tcl-badge-model-y-trunk-small"></use>
    </svg>