<svg xmlns:xlink="http://www.w3.org/1999/xlink" xmlns="http://www.w3.org/2000/svg" aria-hidden="true" viewBox="0 0 28 28" width="28"  height="28" ><defs><symbol id="tcl-badge-model-x-room-for-seven" data-name="Model X Room for Seven" viewBox="0 0 24 22.86" xmlns="http://www.w3.org/2000/svg">
		<path fill="#171A20" d="M15.14 18.37c.23.41.45.82.68 1.23l1.14 2.07c.12.21.06.5-.11.66-.05.05-.11.06-.18.07-.2.02-.36-.05-.51-.16a.584.584 0 0 1-.13-.14c-.57-1.04-1.14-2.07-1.71-3.11-.04-.07-.08-.11-.16-.13-.26-.05-.51-.11-.78-.15-.72-.14-1.44-.29-2.16-.43-.54-.11-1.07-.22-1.61-.32-.06-.01-.12-.03-.18-.04a.519.519 0 0 0-.44.08c-.09.06-.18.14-.25.22-1.14 1.23-2.29 2.48-3.42 3.72-.14.14-.27.29-.41.44-.06.07-.13.14-.18.23a.61.61 0 0 1-.56.26c-.46-.03-.93-.06-1.39-.1-.47-.04-.94-.06-1.41-.09-.21-.02-.41-.02-.62-.05-.32-.05-.55-.24-.67-.56-.1-.28-.12-.56-.02-.84.02-.05.05-.1.07-.14 1.5-2.16 2.99-4.33 4.5-6.5.23-.32.44-.64.67-.96.49-.7 1.16-1.14 1.99-1.32.23-.05.48-.07.72-.07h3.52c.06 0 .1-.02.14-.07 1.26-1.86 2.52-3.71 3.79-5.57.02-.02.03-.05.05-.08-.02-.02-.05-.03-.06-.05a3.58 3.58 0 0 1-1.16-2.18c-.08-.53-.01-1.05.15-1.54.31-.95.87-1.69 1.72-2.22.48-.3 1-.46 1.57-.5 1.48-.13 2.88.68 3.58 1.93.32.57.5 1.18.49 1.83-.01 1.03-.39 1.92-1.08 2.68-.02.02-.04.05-.05.06.08.21.16.41.23.62.06.21.12.41.17.63.02 0 .05-.01.06-.01.74-.22 1.49-.43 2.23-.65.01 0 .03-.01.04-.01.15-.07.28-.03.39.08.07.06.13.14.18.23.07.12.06.23-.01.34-.09.14-.22.23-.38.29-.52.15-1.05.31-1.58.46-.26.07-.51.15-.78.23-.02.01-.05.02-.07.02-.01.13-.02.24-.04.37a4.04 4.04 0 0 1-.73 1.9c-.98 1.39-1.96 2.77-2.95 4.15-.74 1.05-1.48 2.08-2.21 3.13-.02-.01-.05.03-.08.06zm-1.98-1.48c-.02-.04-.03-.06-.05-.09-.42-.78-.86-1.55-1.28-2.33-.04-.06-.07-.09-.15-.09H8.04c-.09 0-.18 0-.26.02-.4.06-.73.23-.96.57-.9 1.27-1.81 2.54-2.71 3.81-.49.68-.96 1.36-1.45 2.04-.02.03-.04.05-.05.08.03.01.05.01.05.01.32.03.64.05.96.1.09.01.14-.01.2-.07l.02-.02c1.15-1.26 2.32-2.53 3.47-3.79.16-.18.34-.34.55-.48.52-.35 1.09-.54 1.72-.47.13.01.25.05.38.07.96.2 1.93.4 2.9.59.09.01.19.03.3.05zm5.94-7.57c-.05.01-.06.02-.09.02-1.24.36-2.49.73-3.72 1.09-.06.02-.11.05-.14.11-.32.45-.63.9-.95 1.35-.49.69-.97 1.39-1.47 2.1.47.85.94 1.69 1.41 2.55.04-.05.06-.08.09-.12l4.5-6.27c.14-.2.25-.41.32-.64.02-.06.02-.11.05-.19zm.03-.99c0-.02.01-.03 0-.04-.08-.47-.25-.89-.58-1.25a.608.608 0 0 1-.17-.39c-.01-.14-.02-.27-.02-.41 0-.04.01-.08.03-.12a.97.97 0 0 1 .42-.53c.11-.06.21-.14.31-.21.27-.22.5-.49.62-.81.23-.59.09-1.34-.37-1.82-.52-.55-1.17-.7-1.89-.5-.96.28-1.43 1.24-1.24 2.1.14.6.5 1.06 1.02 1.38.12.07.23.15.31.26.12.16.16.35.16.55 0 .23-.08.44-.22.63-.46.66-.92 1.32-1.38 1.96-.02.03-.04.05-.05.07l.01.01c1.02-.29 2.03-.59 3.04-.88z"></path>
	</symbol></defs>
      <use href="#tcl-badge-model-x-room-for-seven"></use>
    </svg>