<svg xmlns:xlink="http://www.w3.org/1999/xlink" xmlns="http://www.w3.org/2000/svg" aria-hidden="true" viewBox="0 0 28 28" width="28"  height="28" ><defs><symbol id="tcl-badge-model-y-versatile-seating" data-name="Model Y Versatile Seating" viewBox="0 0 18.16 23.35" xmlns="http://www.w3.org/2000/svg">
		<path fill="#171A20" d="M18.15 5.61v.23c.01.4-.04.8-.1 1.19-.18 1.11-.45 2.2-.73 3.28-.54 2.11-1.16 4.19-1.79 6.27-.3.98-.61 1.97-.91 2.95-.03.09-.06.17-.09.26-.02.05-.05.08-.08.12-.19.17-.56.25-.83.05-.78-.57-1.5-1.2-2.1-1.96-.38-.49-.68-1.01-.88-1.6-.18-.55-.26-1.11-.21-1.69.04-.53.18-1.04.38-1.53.16-.37.34-.72.56-1.06.39-.59.78-1.17 1.17-1.75.52-.77 1.02-1.55 1.49-2.35.23-.4.45-.81.64-1.23.1-.23.19-.47.25-.72.03-.12.04-.25.04-.38V1.9c0-.23-.01-.47-.01-.7 0-.15.02-.3.05-.45.07-.3.25-.51.54-.63.13-.05.27-.09.41-.11.15-.02.31-.03.47-.03.15-.01.28.05.39.14.1.08.18.18.25.28.13.2.22.4.31.6.17.41.28.84.38 1.27.14.62.23 1.25.3 1.88.05.48.08.97.1 1.46zM6.41 23.35H3.26c-.27 0-.54 0-.8-.03-.37-.04-.73-.12-1.07-.27-.61-.27-1.01-.73-1.21-1.37-.08-.26-.13-.52-.15-.79-.02-.21-.03-.42-.03-.62 0-.23.03-.45.1-.66.12-.39.37-.67.73-.85.23-.11.47-.18.73-.22.39-.06.79-.06 1.18-.04.51.03 1.02.1 1.53.18.4.06.8.13 1.2.21.66.13 1.32.29 1.98.46 1.73.45 3.44.97 5.14 1.53.07.02.15.05.22.07.36.13.54.51.41.87-.02.06-.06.11-.11.16-.49.5-1.06.88-1.72 1.11-.37.13-.75.21-1.14.25-.23.02-.46.03-.69.03-1.04-.02-2.1-.02-3.15-.02zM3.5 12.81c.02-.09.04-.18.05-.26.23-1.06.7-2.01 1.4-2.83.79-.94 1.76-1.62 2.92-2.03.43-.16.88-.26 1.34-.32.3-.04.6-.06.91-.05.26.01.53.04.79.06.09.01.18.04.26.1.14.09.19.23.15.4-.02.06-.03.12-.05.18-.04.17-.19.3-.36.31-.05 0-.11 0-.16-.01a5.723 5.723 0 0 0-3.86.87c-1.31.85-2.12 2.05-2.46 3.57 0 .02 0 .04-.01.07.03-.02.06-.03.08-.04.19-.15.38-.31.57-.46a.99.99 0 0 1 .17-.11c.21-.1.42-.04.59.12.14.15.17.38.06.57a.58.58 0 0 1-.16.19c-.53.41-1.06.82-1.59 1.22-.07.05-.15.1-.23.13-.2.09-.4.03-.53-.14-.25-.33-.5-.66-.76-.99-.18-.23-.35-.46-.53-.68a.575.575 0 0 1-.14-.38c0-.25.17-.42.41-.44.19-.02.34.05.47.19.19.23.37.45.56.67.04.03.06.07.11.09z"></path>
	</symbol></defs>
      <use href="#tcl-badge-model-y-versatile-seating"></use>
    </svg>