<svg xmlns:xlink="http://www.w3.org/1999/xlink" xmlns="http://www.w3.org/2000/svg" aria-hidden="true" viewBox="0 0 28 28" width="28"  height="28" ><defs><symbol id="tcl-badge-powerwall-solar" data-name="Powerwall Solar" viewBox="0 0 22.86 21.58" xmlns="http://www.w3.org/2000/svg">
		<path fill="white" d="M13.15 8.24h-1.92c-.12 0-.09-.01-.17.07-.54.56-1.09 1.12-1.63 1.68-.09.1-.06.09-.18.02a3.246 3.246 0 0 1-1.79-2.19c-.08-.32-.11-.65-.09-.98.04-.64.25-1.23.63-1.74a3.285 3.285 0 0 1 2.6-1.34c.16 0 .31 0 .47.03.24.03.48.09.71.18a3.272 3.272 0 0 1 2.13 2.87c.01.17.01.35-.01.52-.01.17-.04.33-.09.49-.07.25-.13.51-.2.76-.01.02-.01.04-.02.06-.02 0-.04-.02-.05-.03l-.33-.33a.187.187 0 0 0-.06-.07zM5.32 20.72H.03s-.01 0-.01-.01v-.02c.02-.02.04-.05.07-.07.55-.55 1.09-1.1 1.64-1.65.58-.59 1.17-1.17 1.75-1.76l.08-.08h5.29c.01 0 .01 0 .02.01.01 0 0 .02-.01.03l-.05.05c-1.02 1.02-2.04 2.05-3.06 3.07l-.38.38c-.02.01-.03.03-.05.05zm4.18-3.63h5.29s.01.01.01.02 0 .01-.01.02l-.06.06c-1.13 1.14-2.26 2.27-3.39 3.41l-.08.08H5.97l-.01-.01c0-.01.01-.01.01-.02.01-.02.03-.05.05-.07 1.13-1.14 2.26-2.27 3.39-3.41.03-.02.06-.05.09-.08zm7.99-7.99h5.29l.01.01c0 .01 0 .01-.01.02-.02.02-.04.05-.07.07-1.13 1.13-2.25 2.26-3.38 3.39l-.09.09h-5.29l-.01-.01c0-.01.01-.01.01-.02l.06-.06c1.13-1.14 2.26-2.27 3.39-3.41.03-.02.06-.05.09-.08zm-3.94 3.94c.15-.01 5.21 0 5.29 0v.02c0 .01-.01.02-.02.02-.02.02-.04.05-.07.07-1.13 1.13-2.25 2.26-3.38 3.39l-.08.08h-5.28c-.01 0-.01 0-.01-.01v-.02l.06-.06c1.13-1.14 2.27-2.28 3.41-3.42a.27.27 0 0 0 .08-.07z"></path>
		<path fill="white" d="M13.32 12.69H8.03l-.01-.01v-.01c.02-.02.04-.05.07-.07.48-.49.97-.97 1.45-1.46.65-.66 1.3-1.31 1.96-1.97l.07-.07h5.29l.01.01v.01c-.02.02-.04.05-.07.07-.47.47-.94.95-1.41 1.42-.66.66-1.32 1.32-1.98 1.99-.03.03-.05.06-.09.09zm-3.95 3.97H4.08v-.02c0-.01.01-.01.01-.02l.05-.05c1.13-1.14 2.27-2.28 3.4-3.41l.08-.08h5.29c.01 0 .01 0 .01.01v.02c-.02.02-.04.04-.05.06-1.14 1.15-2.28 2.29-3.42 3.44-.03.01-.06.03-.08.05zm-3.75 4.92H.15c-.17 0-.15.03-.15-.15v-.38c0-.02.01-.03.03-.03h11.19c.01 0 .02.01.03.02v.5c0 .01-.01.02-.02.03h-.14c-1.83.01-3.65.01-5.47.01zm5.88-.12v-.49c0-.03.01-.06.03-.08l.05-.05 10.65-10.71.55-.55.06-.06h.02v.46c0 .03-.01.06-.03.08l-.09.09c-2.61 2.63-5.22 5.26-7.83 7.9l-3.32 3.35c-.02.02-.04.05-.07.07 0-.01-.01-.01-.02-.01zm-.37-20.11v1.26c0 .1.01.1-.1.1h-.68c-.01 0-.02-.01-.02-.02V.12c0-.14-.02-.13.13-.13h.66c.01 0 .02.01.02.02v.77c-.01.2-.01.39-.01.57zM7.51 4.5a.18.18 0 0 1-.07-.05c-.15-.15-.3-.3-.44-.45-.44-.44-.88-.88-1.31-1.32a.435.435 0 0 1-.06-.07.03.03 0 0 1 0-.04l.03-.03c.15-.15.3-.3.45-.46.02-.02.03-.03.05-.04h.02c.01 0 .01.01.02.01l.06.06c.58.58 1.16 1.17 1.74 1.75l.07.07c0 .02-.01.03-.02.04-.09.09-.18.17-.26.26l-.23.23c-.02.02-.03.03-.05.04zm-.01 5.62c.01 0 .01 0 .02.01l.53.53c.01.01.01.02.02.02-.02.03-.05.05-.07.08-.52.52-1.03 1.04-1.55 1.56l-.21.21-.05.05c-.01.01-.03.01-.03 0l-.03-.03-.47-.47c-.02-.02-.03-.03-.04-.05 0-.01 0-.01.01-.02.62-.62 1.24-1.25 1.86-1.87 0-.01.01-.01.01-.02zm6.2-6.18.07-.07c.31-.31.62-.63.93-.94.27-.27.54-.54.81-.82.02-.02.05-.04.07-.07a.03.03 0 0 1 .04 0l.01.01.51.51.01.01c.01.01.01.02 0 .03l-.04.04c-.6.6-1.19 1.2-1.79 1.8l-.04.04c-.01.01-.02.01-.03 0l-.01-.01-.51-.51c-.02 0-.02-.01-.03-.02zm-8.77 3.8H3.6c-.02 0-.03-.01-.03-.03v-.69c0-.02 0-.04.01-.07l.01-.01h2.62c.06 0 .06.01.06.07v.72c0 .01-.01.02-.02.02H5.06c-.04-.01-.08-.01-.13-.01zm11.21-.8h1.32c.02 0 .03.01.03.03v.75c0 .01-.01.02-.03.02h-2.64c-.02 0-.03-.01-.03-.04v-.75c0-.01.01-.02.02-.02h.91c.13.01.28.01.42.01z"></path>
	</symbol></defs>
      <use href="#tcl-badge-powerwall-solar"></use>
    </svg>