<svg xmlns:xlink="http://www.w3.org/1999/xlink" fill="none" xmlns="http://www.w3.org/2000/svg" width="21" height="21"><circle cx="10.5" cy="10.5" r="10.5" fill="#fff"/><circle cx="10.5" cy="10.5" r="9" fill="#B74134"/><path fill-rule="evenodd" clip-rule="evenodd" d="M5.064 6.332c.187.118.246.37.132.562a6.533 6.533 0 00-.904 3.333c0 1.221.331 2.361.904 3.332a.417.417 0 01-.132.563.39.39 0 01-.544-.137 7.371 7.371 0 01-1.02-3.758c0-1.376.373-2.663 1.02-3.759a.39.39 0 01.544-.136zm10.871 0a.39.39 0 01.545.136 7.371 7.371 0 011.02 3.759 7.371 7.371 0 01-1.02 3.758.39.39 0 01-.545.136.417.417 0 01-.131-.562c.573-.97.903-2.11.903-3.332s-.33-2.362-.903-3.333a.417.417 0 01.131-.562z" fill="#fff"/><path fill-rule="evenodd" clip-rule="evenodd" d="M5.979 7.938a.414.414 0 01.222.531 4.895 4.895 0 00-.324 1.759c0 .621.115 1.214.324 1.758a.414.414 0 01-.222.531.392.392 0 01-.515-.23 5.736 5.736 0 01-.379-2.06c0-.726.134-1.421.38-2.06a.392.392 0 01.514-.229zm9.042 0a.392.392 0 01.515.23c.245.638.38 1.333.38 2.06 0 .726-.135 1.421-.38 2.06a.392.392 0 01-.515.229.414.414 0 01-.222-.531 4.894 4.894 0 00.324-1.758c0-.622-.115-1.215-.324-1.759a.414.414 0 01.222-.53zm-4.557 1.467c0 .104.082.188.183.188h2.675c.141 0 .229.157.158.282l-3.129 5.531c-.094.166-.34.098-.34-.094v-3.714a.185.185 0 00-.182-.188h-2.68c-.14 0-.227-.157-.157-.282l3.132-5.534c.094-.166.34-.098.34.094v3.717z" fill="#fff"/></svg>