<svg xmlns:xlink="http://www.w3.org/1999/xlink" xmlns="http://www.w3.org/2000/svg" aria-hidden="true" viewBox="0 0 60 28" width="60"  height="28" ><defs><symbol id="tcl-badge-model-y-roof" data-name="Model Y Roof" viewBox="0 0 32.4 14.99" xmlns="http://www.w3.org/2000/svg">
		<path fill="#f4f4f4" d="M11.05 13.71a4.738 4.738 0 0 1 .45 1.16c.02.08-.01.12-.09.12-.21.01-.42-.01-.61-.1a.443.443 0 0 1-.15-.12c-.16-.18-.31-.36-.46-.55-.12-.16-.24-.32-.35-.48-.03-.04-.05-.05-.1-.05-.38.02-.75.04-1.13.07-.39.03-.79.07-1.18.1-.66.06-1.32.09-1.99.1-.38 0-.76 0-1.13-.04-.5-.04-.99-.13-1.47-.29-.4-.13-.72-.36-.99-.68-.3-.35-.55-.75-.78-1.17-.26-.46-.48-.94-.68-1.42-.14-.33-.21-.68-.27-1.03C0 8.59-.01 7.84 0 7.09c.01-.54.05-1.07.14-1.6.07-.38.18-.74.34-1.1.26-.6.55-1.18.91-1.73.18-.28.38-.55.61-.79.22-.23.47-.39.77-.49.39-.14.8-.23 1.21-.28.62-.08 1.24-.09 1.86-.06.45.02.89.04 1.34.07.33.02.66.06.99.09.51.05 1.03.09 1.54.1h.08c.17-.23.34-.45.51-.67.09-.12.2-.23.3-.35.11-.14.26-.21.43-.24l.3-.03h.09c.08.01.1.04.08.11-.01.06-.03.11-.04.16-.09.29-.2.56-.33.83-.03.05-.05.1-.09.16h.2c.75-.03 1.5-.02 2.26-.02l4.17.03c1.03.01 2.06.02 3.09.02.54 0 1.08-.02 1.63-.05.41-.02.81-.06 1.22-.09.51-.03 1.03-.07 1.55-.05.43.01.86.04 1.29.09.49.05.97.12 1.45.23.75.16 1.47.41 2.16.76.05.03.08.06.1.11.25.69.67 1.26 1.25 1.71.13.1.22.22.3.35.16.27.27.57.36.87.14.47.22.95.28 1.44.04.36.06.72.04 1.09-.04.78-.16 1.55-.42 2.29a2.7 2.7 0 0 1-.31.64c-.07.1-.15.19-.25.27a3.7 3.7 0 0 0-1.25 1.72c-.02.05-.05.08-.1.11-.63.32-1.28.55-1.97.72-.51.12-1.03.21-1.55.26-.56.06-1.12.1-1.69.1-.32 0-.65-.02-.97-.04-.34-.02-.69-.04-1.03-.07-1.5-.12-3.01-.08-4.51-.07-.66.01-1.33.01-1.99.01l-4.15.03c-.36 0-.71-.01-1.07-.02h-.08zM25.84 3.52h.09c.34.02.68.05 1.01.07.32.02.65.05.97.07.23.02.46.04.69.07.23.03.46.07.69.1.3.05.6.1.9.16.13.02.26.06.41.09-.02-.02-.03-.04-.04-.05-.09-.11-.19-.21-.27-.32-.24-.3-.44-.64-.58-1a.172.172 0 0 0-.11-.11c-.05-.02-.1-.04-.15-.07-1.01-.46-2.09-.67-3.18-.77-.27-.01-.53-.03-.79-.04-.31-.01-.61-.03-.92-.01-.58.02-1.15.06-1.73.11-.59.04-1.18.07-1.77.07-.93 0-1.86 0-2.79-.01-.62 0-1.24-.01-1.85-.01l-2.87-.03c-1.04-.01-2.08.01-3.13.04-.71.02-1.43-.02-2.14-.09-.33-.03-.65-.07-.98-.09-.4-.03-.79-.05-1.19-.07-.7-.03-1.4-.04-2.09.05-.4.05-.79.14-1.17.29-.14.06-.26.14-.37.24-.22.21-.4.46-.57.72-.33.51-.61 1.06-.85 1.61-.13.28-.24.56-.3.86C.65 5.91.6 6.43.59 6.95.57 7.5.57 8.04.62 8.59c.02.3.06.6.12.9.07.35.19.67.33.99.27.61.57 1.2.95 1.74.14.2.29.4.47.57.1.09.21.17.34.22a4 4 0 0 0 .67.21c.5.11 1.01.15 1.52.16.45.01.9 0 1.34-.03.48-.03.95-.07 1.43-.1.45-.03.89-.08 1.34-.11.52-.04 1.04-.04 1.55-.02.49.01.99.04 1.48.03 1.14 0 2.29-.01 3.43-.02l3.5-.03c1.13-.01 2.27-.02 3.4.05.34.02.68.05 1.02.07.34.02.68.05 1.01.06.57.02 1.13-.02 1.7-.07.47-.04.94-.11 1.41-.21.67-.14 1.33-.34 1.95-.64.05-.02.08-.06.11-.11.21-.51.51-.96.89-1.35l.05-.05c-.05 0-.09.01-.14.02-.37.1-.74.16-1.11.21-.43.06-.86.14-1.3.18l-1.17.09-.86.06c-.07 0-.14.01-.22.01.5-2.63.49-5.26.01-7.9zm3.99.65c.1.09.18.17.26.25.26.27.43.6.57.95.21.55.29 1.13.32 1.71.02.33.01.65-.01.98-.03.44-.11.87-.25 1.28-.19.55-.48 1.03-.93 1.41l-.03.03c.04 0 .06 0 .08-.01.34-.05.68-.1 1.02-.16.02 0 .05-.01.07-.02.13-.1.25-.19.32-.34.08-.16.16-.33.21-.5.29-.93.41-1.87.33-2.84-.04-.46-.11-.9-.23-1.35-.07-.28-.17-.56-.3-.82a.83.83 0 0 0-.24-.29c-.04-.03-.08-.07-.12-.1-.03-.02-.06-.04-.09-.04-.23-.04-.46-.07-.69-.11-.09 0-.18-.01-.29-.03z"></path>
		<path fill="#f4f4f4" d="M14.74 12.1c-.27-1.13-.42-2.26-.49-3.41-.1-1.95.03-3.88.48-5.78.07-.01 10.39.6 10.47.63.02.13.05.27.07.41.06.43.12.86.17 1.28.04.34.06.67.09 1.01.04.55.06 1.1.04 1.65-.01.48-.04.96-.09 1.44l-.15 1.29c-.04.27-.08.55-.13.83-3.48.21-6.97.43-10.46.65zM2.04 4.01c.11-.07.22-.14.34-.2.33-.18.69-.33 1.05-.45.71-.26 1.45-.45 2.2-.59.38-.07.77-.12 1.15-.17.55-.07 1.1-.1 1.65-.12.14 0 .29.01.43.02.49.01.97.02 1.46.04.4.02.8.05 1.2.07.29.02.58.04.87.07l.95.09.58.06c.03 0 .06.01.09.01v.06c-.13.61-.23 1.22-.3 1.83-.08.65-.12 1.3-.15 1.96-.02.68-.02 1.36.01 2.04.02.51.06 1.02.12 1.52.07.62.18 1.24.32 1.85v.04l-.22.03-1.01.12-.84.09c-.29.03-.57.05-.86.07-.83.06-1.67.07-2.5.07-.27.04-.55 0-.82-.01-.27-.02-.54-.04-.81-.07-1.02-.1-2.02-.3-2.99-.6-.46-.14-.91-.3-1.34-.5a3.5 3.5 0 0 1-.56-.32c0-.01-.01-.02-.01-.04.02 0 .03 0 .05.01.58.17 1.17.34 1.76.48.46.11.93.2 1.4.26.45.06.9.1 1.36.12l1.46.06h.05c-.01-.03-.02-.05-.03-.08-.21-.57-.35-1.15-.44-1.75-.16-1.01-.2-2.03-.18-3.06.01-.51.04-1.02.1-1.52.09-.77.24-1.53.5-2.27.01-.04.03-.08.05-.13h-.1c-.53.02-1.07.03-1.6.07-.42.02-.83.07-1.23.12-.8.1-1.58.3-2.36.52-.25.07-.5.15-.76.22-.01 0-.02.01-.04.01v-.03z"></path>
	</symbol></defs>
      <use href="#tcl-badge-model-y-roof"></use>
    </svg>