<svg xmlns:xlink="http://www.w3.org/1999/xlink" fill="none" xmlns="http://www.w3.org/2000/svg" width="21" height="21"><circle cx="10.5" cy="10.5" r="10.5" fill="#fff"/><circle cx="10.5" cy="10.5" r="9" fill="#B74134"/><path d="M10.5 16.978l1.54-8.657c1.463 0 1.925.165 1.99.814 0 0 .98-.363 1.486-1.111-1.936-.891-3.883-.935-3.883-.935L10.5 8.475 9.367 7.089s-1.947.044-3.883.935c.495.748 1.485 1.111 1.485 1.111.066-.66.528-.814 1.99-.814l1.54 8.657z" fill="#fff"/><path d="M10.5 6.693a12.665 12.665 0 015.192 1.045c.242-.44.308-.638.308-.638a14.95 14.95 0 00-5.5-1.078A14.95 14.95 0 005 7.1s.088.242.308.638A12.665 12.665 0 0110.5 6.693z" fill="#fff"/></svg>